<?xml version="1.0" encoding="utf-8"?>
<!-- Generator: Adobe Illustrator 25.2.1, SVG Export Plug-In . SVG Version: 6.00 Build 0)  -->
<svg version="1.1" id="Layer_1" xmlns="http://www.w3.org/2000/svg" xmlns:xlink="http://www.w3.org/1999/xlink" x="0px" y="0px"
	 viewBox="0 0 464.1 448" style="enable-background:new 0 0 464.1 448;" xml:space="preserve">
<style type="text/css">
	.st0{fill:#DBDBDB;}
	.st1{fill:#FFFFFF;}
</style>
<g>
	<circle class="st0" cx="232" cy="224" r="139"/>
	<path class="st1" d="M234.3,317.2c-26.4-0.6-50.1-3.9-72.6-13.5c-6.2-2.8-12.1-6.2-17.7-10.2c-4.9-3.3-8.7-8-10.8-13.5
		c-2.9-7.5-0.7-13.6,6.2-17.6c5-2.9,10.6-4,16.2-4.5c12-0.9,23.7,0.8,34.6,6.2c3,1.5,5.8,3.5,8.3,5.7c7.3,6.4,14.9,12.3,23.8,16.2
		c4.8,2.1,9.8,3.6,15.2,3c1.7-0.2,3.4-0.7,5-1.5c4.2-2.1,5.9-7.1,3.8-11.3c-0.4-0.8-0.9-1.5-1.6-2.2c-2.2-2.3-4.7-4.3-7.6-5.7
		c-11.3-5.3-22.6-10.5-34.1-15.4c-15-6.5-30.3-12.4-44.2-21.3c-5.9-3.6-11.4-7.8-16.4-12.5c-12.6-12.2-14.8-28.5-6.7-44
		c5.2-9.9,13-17.4,22-23.7c14.1-9.6,30.3-15.8,47.1-18.3c33.3-5.3,67.5-1.3,98.8,11.5c7.6,2.9,14.6,7.4,20.5,13.1
		c3.5,3.4,6.1,7.6,7.4,12.4c1.7,6.3-0.1,11.3-5.6,14.9c-5,3.3-10.8,4.6-16.6,5.1c-12.2,1-24.1-0.4-35.2-5.8
		c-3.5-1.7-6.7-3.9-9.6-6.5c-7.1-6.2-14.4-12.1-23.1-15.9c-4.6-2-9.3-3.3-14.4-2.9c-4.5,0.4-8,2.8-9.2,6.5c-1.5,3.8,0,8.1,3.4,10.3
		c4.3,3.2,9,6,13.8,8.3c14.2,6.3,28.5,12,42.8,18.1c11.2,4.8,22.2,9.8,32.1,17c4.7,3.3,9,7.1,12.9,11.3
		c11.3,12.8,12.9,28.9,4.8,43.9c-6.8,12.4-17.2,20.9-29.4,27.6c-15,8.2-31.1,12.6-48,14.3C244.4,316.6,238.3,316.9,234.3,317.2z"/>
</g>
<image style="overflow:visible;" width="629" height="416" xlink:href="2195B609.jpg"  transform="matrix(1 0 0 1 -868.75 -24.9375)">
</image>
</svg>
