<?xml version="1.0" encoding="utf-8"?>
<!-- Generator: Adobe Illustrator 25.2.1, SVG Export Plug-In . SVG Version: 6.00 Build 0)  -->
<svg version="1.1" id="Layer_1" xmlns="http://www.w3.org/2000/svg" xmlns:xlink="http://www.w3.org/1999/xlink" x="0px" y="0px"
	 viewBox="0 0 2013.8 1771.1" style="enable-background:new 0 0 2013.8 1771.1;" xml:space="preserve">
<style type="text/css">
	.st0{fill:#FFFFFF;}
	.st1{fill:#FE4512;}
</style>
<g>
	<circle cx="1006.9" cy="885.5" r="600"/>
	<g id="Layer_2_1_">
		<g id="Layer_1-2">
			<g id="original">
				<path class="st0" d="M808.9,620.4v538.7c-0.5,8.3,5.8,15.5,14.1,16c0.9,0.1,1.8,0,2.6-0.1h62.1c7.9,0,14.3-6.4,14.3-14.2
					c0-0.3,0-0.6,0-0.9l0,0V896.5c-1.1-3.9,1.1-8,5-9.2l98.2-36.1c3.3-0.9,6.8-0.9,10.1,0l96.5,32.7c5.9,0,5.9,4.2,5.9,9.2v255.1
					c0,15.1,5.9,21,21,21h46.2c15.9,0,22.7-5.9,22.7-23.5V846.1c0,0,0-4.2-4.2-5l-187.1-83.9h-10.9l-53.7,20.1l-47.8,17.6V621.2
					c0-10.9,0-21-14.3-25.2h-63.8c-9.5,2.2-16.3,10.4-16.8,20.1V620.4z"/>
				<path class="st1" d="M974.2,1110.4v-46.2c0-15.1,0-15.1,15.1-15.1h39.4c11.7,0,15.1,0,15.1,15.1v91.5c0,12.6,0,15.9-15.9,17.6
					h-38.6c-11.7,0-15.1-5-15.1-16.8L974.2,1110.4z"/>
			</g>
		</g>
	</g>
</g>
</svg>
