<svg id="Layer_1" data-name="Layer 1" xmlns="http://www.w3.org/2000/svg" viewBox="0 0 14.3 14.3"><defs><style>.cls-1{fill:#e46285;}.cls-2{fill:#fff;}.cls-3{fill:#fe4512;}</style></defs><circle class="cls-1" cx="7.15" cy="7.15" r="7.15"/><g id="Layer_2" data-name="Layer 2"><g id="Layer_1-2" data-name="Layer 1-2"><g id="original"><path class="cls-2" d="M8.66,5.71v6.42a.18.18,0,0,0,.2.19H9.6a.17.17,0,0,0,.17-.18h0V9a.09.09,0,0,1,.06-.11L11,8.46a.24.24,0,0,1,.12,0l1.15.39c.07,0,.07.05.07.11V12c0,.18.07.25.25.25h.55c.19,0,.27-.07.27-.28V8.4s0-.05-.05-.06l-2.23-1H11l-.64.24-.57.21V5.72c0-.13,0-.25-.17-.3H8.86a.26.26,0,0,0-.2.24Z" transform="translate(-3.87 -1.72)"/><path class="cls-3" d="M10.63,11.55V11c0-.18,0-.18.18-.18h.47c.14,0,.18,0,.18.18v1.09c0,.15,0,.19-.19.21h-.46c-.14,0-.18-.06-.18-.2Z" transform="translate(-3.87 -1.72)"/></g></g></g></svg>